<?xml version="1.0" encoding="UTF-8"?>
<svg id="Calque_1" data-name="Calque 1" xmlns="http://www.w3.org/2000/svg" viewBox="0 0 200 200">
  <path d="M100.96,199.99c-1.4,0-3.26,0-4.15-.04-26-.81-50.36-11.56-68.54-30.28C10.04,150.91,0,126.17,0,100.01,0,44.87,44.86,0,100,0s100,44.86,100,100c0,26.53-10.28,51.52-28.95,70.36-18.65,18.83-43.52,29.35-70.01,29.62h-.09Zm-.96-191.96C49.28,8.03,8.02,49.29,8.02,100.01s39.13,90.38,89.07,91.93c.61,.03,1.91,.04,3.9,.04,50.15-.51,90.98-41.77,90.98-91.96S150.72,8.03,100,8.03Z"/>
  <path d="M100,185.27c-1.33,0-2.68-.03-4.01-.09l.19-4.01c2.56,.12,5.18,.12,7.73,0l.19,4.01c-1.36,.06-2.74,.1-4.1,.1Zm-12.08-.85c-2.67-.38-5.35-.89-7.97-1.52l.94-3.9c2.49,.6,5.05,1.09,7.59,1.45l-.56,3.97Zm24.26-.01l-.57-3.97c2.54-.36,5.1-.85,7.59-1.46l.94,3.9c-2.62,.63-5.3,1.15-7.97,1.53Zm-40.01-3.78c-2.55-.88-5.08-1.89-7.53-3.01l1.67-3.65c2.34,1.07,4.75,2.03,7.18,2.87l-1.31,3.79Zm55.76-.03l-1.31-3.79c2.43-.84,4.84-1.81,7.17-2.88l1.67,3.65c-2.45,1.12-4.98,2.14-7.53,3.02Zm-70.51-6.7c-2.33-1.35-4.63-2.82-6.82-4.39l2.33-3.27c2.09,1.49,4.28,2.9,6.5,4.18l-2.01,3.47Zm85.24-.05l-2.01-3.47c2.22-1.28,4.41-2.69,6.5-4.19l2.33,3.27c-2.2,1.57-4.49,3.05-6.82,4.39Zm-98.45-9.35c-2.04-1.76-4.01-3.65-5.87-5.59l2.9-2.77c1.78,1.86,3.66,3.65,5.6,5.33l-2.63,3.03Zm111.64-.06l-2.63-3.03c1.94-1.68,3.82-3.48,5.59-5.34l2.9,2.77c-1.86,1.95-3.83,3.83-5.87,5.6Zm-122.83-11.66c-1.67-2.12-3.26-4.34-4.72-6.6l3.37-2.18c1.39,2.16,2.9,4.27,4.5,6.29l-3.15,2.48Zm134.01-.07l-3.15-2.48c1.59-2.02,3.1-4.14,4.49-6.3l3.37,2.17c-1.46,2.27-3.04,4.49-4.71,6.61Zm-142.8-13.54c-1.24-2.39-2.38-4.88-3.38-7.37l3.72-1.5c.96,2.38,2.04,4.74,3.22,7.03l-3.56,1.84Zm151.57-.08l-3.56-1.84c1.18-2.28,2.26-4.65,3.21-7.03l3.72,1.49c-1,2.5-2.14,4.98-3.37,7.38ZM18.2,124.11c-.76-2.59-1.4-5.24-1.91-7.88l3.94-.76c.49,2.52,1.1,5.05,1.82,7.51l-3.85,1.13Zm163.64-.09l-3.85-1.13c.72-2.46,1.33-4.99,1.82-7.51l3.94,.75c-.51,2.65-1.15,5.3-1.91,7.89ZM15.13,108.2c-.25-2.67-.39-5.4-.39-8.1h4.01c0,2.57,.13,5.17,.37,7.72l-3.99,.38Zm169.75-.1l-3.99-.38c.24-2.55,.36-5.15,.36-7.72v-.19s4.01,0,4.01,0v.17c0,2.72-.13,5.44-.38,8.11ZM19.1,92.38l-3.99-.37c.25-2.69,.63-5.39,1.14-8.03l3.94,.75c-.48,2.52-.84,5.09-1.08,7.65Zm161.77-.27c-.25-2.56-.62-5.13-1.11-7.65l3.94-.76c.51,2.64,.9,5.34,1.16,8.03l-3.99,.39ZM21.99,77.21l-3.85-1.12c.75-2.58,1.64-5.17,2.64-7.67l3.73,1.49c-.95,2.39-1.8,4.84-2.52,7.31Zm155.94-.26c-.73-2.46-1.58-4.92-2.54-7.3l3.72-1.5c1.01,2.5,1.91,5.08,2.67,7.66l-3.85,1.14ZM27.72,62.87l-3.57-1.84c1.23-2.39,2.6-4.76,4.05-7.03l3.38,2.17c-1.39,2.16-2.69,4.42-3.86,6.7Zm144.44-.24c-1.18-2.28-2.49-4.53-3.89-6.68l3.37-2.18c1.46,2.26,2.84,4.62,4.08,7.01l-3.56,1.85ZM36.06,49.87l-3.16-2.48c1.66-2.12,3.45-4.18,5.31-6.14l2.91,2.77c-1.77,1.86-3.47,3.83-5.06,5.85Zm127.71-.22c-1.59-2.01-3.3-3.97-5.08-5.83l2.9-2.77c1.86,1.95,3.66,4.01,5.33,6.12l-3.15,2.49Zm-117.06-10.98l-2.63-3.03c2.03-1.77,4.17-3.46,6.37-5.03l2.33,3.26c-2.09,1.49-4.13,3.11-6.07,4.79Zm106.38-.18c-1.94-1.68-3.99-3.28-6.08-4.77l2.32-3.27c2.2,1.56,4.34,3.24,6.38,5.01l-2.62,3.04ZM59.27,29.69l-2.01-3.47c2.33-1.35,4.76-2.61,7.2-3.73l1.67,3.65c-2.33,1.07-4.64,2.27-6.86,3.56Zm81.23-.14c-2.23-1.28-4.54-2.47-6.88-3.53l1.66-3.65c2.45,1.11,4.88,2.36,7.22,3.71l-2,3.48Zm-67.2-6.31l-1.32-3.79c2.54-.88,5.16-1.66,7.78-2.29l.95,3.9c-2.5,.61-4.99,1.34-7.41,2.19Zm53.14-.09c-2.43-.84-4.93-1.56-7.42-2.16l.94-3.9c2.62,.63,5.24,1.39,7.79,2.27l-1.3,3.79Zm-38.14-3.56l-.57-3.97c2.66-.38,5.38-.64,8.07-.78l.19,4.01c-2.57,.12-5.16,.37-7.69,.74Zm23.13-.04c-2.54-.36-5.13-.6-7.7-.71l.18-4.01c2.7,.12,5.41,.37,8.08,.75l-.56,3.97Z"/>
  <path d="M158.99,70.25H41.01c-2.71,0-4.91,2.2-4.91,4.91v59.77c0,2.71,2.2,4.91,4.91,4.91h117.98c2.7,0,4.91-2.2,4.91-4.91v-59.77c0-2.71-2.2-4.91-4.91-4.91ZM42.26,125.78c-1.06,0-1.92-.86-1.92-1.92s.86-1.93,1.92-1.93,1.92,.86,1.92,1.93-.86,1.92-1.92,1.92Zm0-6.56c-1.06,0-1.92-.86-1.92-1.92s.86-1.92,1.92-1.92,1.92,.86,1.92,1.92-.86,1.92-1.92,1.92Zm1.92-8.48c0,1.06-.86,1.92-1.92,1.92s-1.92-.86-1.92-1.92v-4.87c0-.15,.12-.26,.27-.26h3.31c.15,0,.27,.12,.27,.26v4.87Zm0-6.55c0,.15-.12,.27-.27,.27h-3.31c-.15,0-.27-.12-.27-.27v-4.87c0-1.06,.86-1.92,1.92-1.92s1.92,.86,1.92,1.92v4.87Zm-1.92-9.5c-1.06,0-1.92-.86-1.92-1.92s.86-1.92,1.92-1.92,1.92,.86,1.92,1.92-.86,1.92-1.92,1.92Zm0-6.55c-1.06,0-1.92-.86-1.92-1.92s.86-1.92,1.92-1.92,1.92,.86,1.92,1.92-.86,1.92-1.92,1.92Zm116.29,46.34H48.37v-58.89h110.18v58.89Z"/>
  <path d="M46.9,117.89c-.52,0-1.01-.3-1.23-.81-.29-.68,.02-1.47,.7-1.76l47.63-20.47c.37-.16,.79-.14,1.15,.04l28.92,15.14c.65,.34,.91,1.15,.56,1.81-.34,.65-1.15,.91-1.81,.56l-28.36-14.84-47.04,20.22c-.17,.07-.35,.11-.53,.11Z"/>
  <path d="M159.14,111.05c-.17,0-.34-.03-.5-.1l-33.12-13.43-16.29,6.9c-.68,.29-1.47-.03-1.75-.71-.29-.68,.03-1.47,.71-1.75l16.8-7.12c.33-.14,.7-.14,1.02,0l33.63,13.64c.68,.28,1.01,1.06,.74,1.74-.21,.52-.71,.83-1.24,.83Z"/>
  <path d="M153.72,136.9c-.23,0-.47-.06-.69-.19-9.46-5.7-30.83-6.15-37.15-6.15-11.69,0-22.55-2.21-36.28-7.38-12.93-4.87-32.17,0-32.36,.04-.72,.18-1.44-.25-1.63-.96-.18-.72,.25-1.44,.96-1.63,.82-.21,20.26-5.12,33.97,.04,13.42,5.05,23.99,7.21,35.34,7.21,8.33,0,28.76,.64,38.53,6.53,.63,.38,.84,1.2,.45,1.84-.25,.42-.69,.65-1.15,.65Z"/>
  <path d="M145.76,138.85c-.12,0-.25-.02-.38-.05-8-2.34-16.58-3.06-23.15-3.43-1.46-.08-2.92-.15-4.37-.21-5.94-.27-12.08-.55-18.15-1.81-3.86-.8-7.79-1.87-12-3.27-1.54-.51-3.07-1.1-4.55-1.68-2.25-.87-4.57-1.77-6.9-2.37-10.34-2.68-21.46-1.16-28.96,.58-.72,.17-1.44-.28-1.61-1-.17-.72,.28-1.44,1-1.61,7.8-1.81,19.38-3.38,30.24-.56,2.47,.64,4.87,1.57,7.19,2.47,1.45,.56,2.95,1.14,4.43,1.63,4.11,1.37,7.94,2.41,11.7,3.19,5.86,1.21,11.63,1.48,17.73,1.76,1.46,.07,2.93,.13,4.4,.22,6.72,.37,15.49,1.11,23.75,3.53,.71,.21,1.11,.95,.91,1.66-.17,.58-.7,.96-1.28,.96Z"/>
  <path d="M184.01,56.3c-1.56-2.64-3.2-5.24-4.63-7.95-1.33-2.51-2.49-5.48-4.24-7.72-1.44-1.85-3.28-3.26-4.62-5.19l-40.92,31.35,.05,.07c-7.83,7-14.76,21.87-22.65,34.39-.54,.86,.26,1.91,1.23,1.62,14.16-4.23,30.22-6.93,39.11-12.91l.03,.04,38.93-29.82c-.86-1.22-1.53-2.57-2.3-3.86Z"/>
</svg>