<?xml version="1.0" encoding="UTF-8"?>
<svg id="Calque_1" data-name="Calque 1" xmlns="http://www.w3.org/2000/svg" viewBox="0 0 50 50">
  <defs>
    <style>
      .cls-1 {
        fill: #2e2e2e;
      }
    </style>
  </defs>
  <path id="Icon_awesome-phone-alt" data-name="Icon awesome-phone-alt" class="cls-1" d="M46.7,34.17l-9.96-4.27c-.87-.37-1.89-.12-2.49,.61l-4.41,5.39c-6.92-3.26-12.49-8.83-15.75-15.75l5.39-4.41c.74-.6,.99-1.62,.61-2.49L15.82,3.29c-.41-.95-1.44-1.46-2.44-1.24L4.13,4.19c-.97,.22-1.65,1.09-1.65,2.08,0,22.78,18.46,41.25,41.25,41.26h0c.99,0,1.86-.69,2.08-1.65l2.13-9.25c.23-1.01-.3-2.04-1.25-2.45Z"/>
</svg>