<?xml version="1.0" encoding="UTF-8"?>
<svg id="Calque_1" data-name="Calque 1" xmlns="http://www.w3.org/2000/svg" viewBox="0 0 200 200">
  <path d="M53.28,56.98v7.46h84.22v-7.46H53.28Zm3.73,4.97c-.81,0-1.47-.66-1.47-1.47s.66-1.47,1.47-1.47,1.47,.66,1.47,1.47-.66,1.47-1.47,1.47Zm4.6,0c-.81,0-1.47-.66-1.47-1.47s.66-1.47,1.47-1.47,1.47,.66,1.47,1.47-.66,1.47-1.47,1.47Zm4.61,0c-.81,0-1.48-.66-1.48-1.47s.66-1.47,1.48-1.47,1.47,.66,1.47,1.47-.66,1.47-1.47,1.47Z"/>
  <path d="M100.95,199.63c-1.39,0-3.24,0-4.14-.04-25.9-.8-50.17-11.52-68.29-30.17C10.37,150.72,.37,126.07,.37,100.01,.37,45.07,45.06,.37,100,.37s99.63,44.7,99.63,99.63c0,26.43-10.24,51.33-28.84,70.11-18.59,18.76-43.36,29.24-69.75,29.51h-.09Zm-.95-191.26C49.47,8.37,8.36,49.48,8.36,100.01s38.98,90.05,88.75,91.59c.61,.03,1.9,.04,3.89,.04,49.96-.51,90.64-41.62,90.64-91.63S150.53,8.37,100,8.37Z"/>
  <path d="M100.03,184.96c-1.34,0-2.69-.03-4.02-.09l.18-3.99c1.26,.06,2.54,.09,3.81,.09,1.3,0,2.61-.03,3.9-.09l.19,3.99c-1.35,.06-2.71,.1-4.06,.1Zm-12.06-.85c-2.66-.38-5.33-.89-7.94-1.52l.94-3.89c2.48,.6,5.03,1.08,7.56,1.44l-.56,3.96Zm24.17-.01l-.57-3.96c2.53-.36,5.08-.85,7.56-1.45l.94,3.89c-2.61,.63-5.28,1.14-7.94,1.52Zm-39.87-3.77c-2.54-.88-5.06-1.89-7.51-3l1.66-3.64c2.33,1.06,4.74,2.03,7.15,2.86l-1.3,3.78Zm55.56-.03l-1.31-3.78c2.42-.84,4.82-1.8,7.15-2.87l1.66,3.63c-2.44,1.12-4.97,2.13-7.5,3.01Zm-70.25-6.67c-2.32-1.34-4.61-2.81-6.8-4.37l2.32-3.26c2.09,1.49,4.27,2.89,6.48,4.17l-2,3.46Zm84.93-.05l-2-3.46c2.21-1.28,4.39-2.68,6.47-4.17l2.32,3.25c-2.19,1.56-4.47,3.03-6.79,4.38Zm-98.09-9.32c-2.03-1.76-4-3.63-5.85-5.57l2.89-2.76c1.77,1.85,3.65,3.64,5.58,5.31l-2.62,3.02Zm111.23-.06l-2.62-3.02c1.93-1.68,3.81-3.47,5.57-5.32l2.89,2.76c-1.85,1.94-3.82,3.82-5.85,5.58Zm-122.38-11.61c-1.67-2.11-3.25-4.32-4.7-6.58l3.36-2.17c1.38,2.15,2.89,4.26,4.48,6.27l-3.14,2.48Zm133.52-.07l-3.14-2.47c1.58-2.01,3.09-4.12,4.47-6.27l3.36,2.16c-1.45,2.26-3.03,4.47-4.69,6.58Zm-142.28-13.49c-1.23-2.38-2.37-4.85-3.37-7.35l3.71-1.49c.95,2.37,2.03,4.73,3.21,7l-3.55,1.84Zm151.02-.09l-3.55-1.83c1.17-2.27,2.25-4.63,3.2-7l3.71,1.49c-1,2.49-2.13,4.96-3.36,7.35ZM18.49,124.03c-.76-2.57-1.4-5.22-1.91-7.85l3.92-.76c.48,2.51,1.1,5.03,1.82,7.48l-3.83,1.13Zm163.04-.09l-3.84-1.12c.72-2.45,1.33-4.97,1.81-7.48l3.93,.75c-.51,2.64-1.14,5.29-1.9,7.86ZM15.44,108.17c-.25-2.66-.38-5.38-.39-8.07h4c0,2.56,.13,5.15,.37,7.69l-3.98,.38Zm169.13-.1l-3.98-.38c.24-2.54,.36-5.13,.36-7.69v-.19s4,0,4,0v.17c0,2.71-.13,5.42-.38,8.08ZM19.4,92.4l-3.98-.37c.25-2.68,.63-5.37,1.13-8l3.93,.75c-.48,2.51-.84,5.07-1.08,7.63Zm161.17-.27c-.25-2.55-.62-5.12-1.1-7.62l3.92-.76c.51,2.63,.9,5.32,1.16,8l-3.98,.38ZM22.28,77.29l-3.84-1.12c.75-2.58,1.64-5.15,2.63-7.64l3.71,1.48c-.95,2.38-1.79,4.83-2.51,7.28Zm155.37-.26c-.72-2.45-1.58-4.9-2.53-7.27l3.71-1.49c1,2.49,1.9,5.06,2.66,7.63l-3.83,1.13ZM27.98,63l-3.55-1.83c1.23-2.39,2.59-4.74,4.04-7l3.36,2.16c-1.38,2.16-2.68,4.4-3.85,6.67Zm143.91-.24c-1.18-2.27-2.48-4.51-3.87-6.66l3.36-2.17c1.46,2.25,2.82,4.61,4.06,6.99l-3.55,1.84ZM36.29,50.05l-3.14-2.47c1.66-2.11,3.44-4.17,5.29-6.11l2.9,2.75c-1.76,1.85-3.46,3.82-5.04,5.83Zm127.24-.21c-1.59-2.01-3.29-3.96-5.06-5.81l2.89-2.76c1.86,1.94,3.64,3.99,5.31,6.1l-3.14,2.48Zm-116.64-10.94l-2.62-3.02c2.03-1.76,4.16-3.45,6.34-5.01l2.33,3.25c-2.08,1.49-4.11,3.1-6.05,4.78Zm105.99-.18c-1.94-1.67-3.98-3.27-6.06-4.75l2.32-3.26c2.19,1.55,4.33,3.23,6.36,4.99l-2.61,3.02ZM59.42,29.95l-2.01-3.46c2.32-1.35,4.74-2.6,7.18-3.72l1.67,3.63c-2.32,1.07-4.62,2.26-6.84,3.54Zm80.93-.14c-2.22-1.28-4.52-2.46-6.85-3.52l1.66-3.64c2.44,1.11,4.86,2.35,7.19,3.7l-1.99,3.46Zm-66.95-6.28l-1.31-3.78c2.54-.88,5.14-1.65,7.75-2.29l.95,3.88c-2.49,.61-4.97,1.34-7.39,2.18Zm52.95-.09c-2.42-.83-4.91-1.56-7.39-2.15l.93-3.89c2.61,.63,5.22,1.39,7.76,2.26l-1.3,3.78Zm-38-3.55l-.57-3.96c2.65-.38,5.36-.64,8.04-.77l.19,3.99c-2.56,.12-5.14,.37-7.67,.74Zm23.04-.04c-2.53-.36-5.11-.59-7.67-.71l.18-3.99c2.69,.12,5.39,.37,8.05,.75l-.56,3.96Z"/>
  <path d="M145.07,146.78h-6.71v-4h6.71c1.15,0,2.09-.94,2.09-2.09V49.05c0-1.15-.94-2.09-2.09-2.09H66.55c-1.15,0-2.09,.94-2.09,2.09v6.82h-4v-6.82c0-3.36,2.73-6.09,6.09-6.09h78.52c3.36,0,6.09,2.73,6.09,6.09v91.64c0,3.36-2.73,6.09-6.09,6.09Z"/>
  <path d="M134.24,157.99H55.72c-3.36,0-6.09-2.73-6.09-6.09V60.26c0-3.36,2.73-6.09,6.09-6.09h78.52c3.36,0,6.09,2.73,6.09,6.09v91.64c0,3.36-2.73,6.09-6.09,6.09ZM55.72,58.17c-1.15,0-2.09,.94-2.09,2.09v91.64c0,1.15,.94,2.09,2.09,2.09h78.52c1.15,0,2.09-.94,2.09-2.09V60.26c0-1.15-.94-2.09-2.09-2.09H55.72Z"/>
  <path d="M132.02,79.7H57.94v-11.51h74.08v11.51Zm-71.42-2.66h68.75v-6.18H60.6v6.18Z"/>
  <path d="M92.84,117.77H57.94v-34.5h34.91v34.5Zm-32.24-2.67h29.58v-29.17h-29.58v29.17Z"/>
  <path d="M132.02,99.75h-35.86v-16.47h35.86v16.47Zm-33.2-2.66h30.53v-11.14h-30.53v11.14Z"/>
  <path d="M132.02,117.77h-35.86v-15.91h35.86v15.91Zm-33.2-2.67h30.53v-10.58h-30.53v10.58Z"/>
  <rect x="59.27" y="124.45" width="32.24" height="4"/>
  <rect x="59.27" y="132.99" width="71.42" height="2.67"/>
  <rect x="59.27" y="138.5" width="60.02" height="2.67"/>
  <rect x="59.27" y="144.02" width="67.83" height="2.67"/>
  <rect x="59.27" y="149.54" width="69.92" height="2.67"/>
  <g>
    <polygon points="82.18 98.39 135.5 135.29 109.82 140.88 94.3 162.09 82.18 98.39"/>
    <rect x="112.2" y="137.89" width="5.4" height="21.59" transform="translate(-62.5 86.72) rotate(-33.05)"/>
  </g>
</svg>