<?xml version="1.0" encoding="UTF-8"?>
<svg id="Calque_1" data-name="Calque 1" xmlns="http://www.w3.org/2000/svg" viewBox="0 0 200 200">
  <path d="M100.82,199.63c-1.07,0-2.65,0-3.95-.04-25.96-.8-50.23-11.52-68.34-30.17C10.36,150.72,.36,126.07,.36,100.01,.36,45.07,45.06,.37,100,.37s99.64,44.7,99.64,99.64c0,26.43-10.24,51.33-28.84,70.11-18.59,18.76-43.36,29.25-69.75,29.52h-.22Zm-.82-191.26C49.47,8.37,8.36,49.48,8.36,100.01s38.98,90.05,88.75,91.59c1.27,.04,2.91,.04,3.89,.04,49.96-.51,90.64-41.62,90.64-91.63S150.53,8.37,100,8.37Z"/>
  <path d="M100,184.96c-1.33,0-2.67-.03-3.99-.09l.19-3.99c2.55,.12,5.16,.12,7.71,0l.19,3.99c-1.35,.06-2.73,.1-4.09,.1Zm-12.04-.85c-2.66-.38-5.33-.89-7.94-1.52l.94-3.89c2.48,.6,5.03,1.08,7.56,1.44l-.56,3.96Zm24.17-.01l-.57-3.96c2.53-.36,5.08-.85,7.56-1.45l.94,3.89c-2.61,.63-5.28,1.14-7.94,1.52Zm-39.87-3.77c-2.54-.88-5.06-1.89-7.51-3l1.66-3.64c2.33,1.06,4.74,2.03,7.15,2.86l-1.3,3.78Zm55.56-.03l-1.31-3.78c2.42-.84,4.82-1.8,7.15-2.87l1.66,3.63c-2.44,1.12-4.97,2.13-7.5,3.01Zm-70.25-6.67c-2.32-1.34-4.61-2.81-6.8-4.37l2.32-3.26c2.09,1.48,4.27,2.89,6.48,4.17l-2,3.46Zm84.93-.05l-2-3.46c2.21-1.28,4.39-2.68,6.47-4.17l2.32,3.25c-2.19,1.56-4.47,3.03-6.79,4.38Zm-98.09-9.32c-2.03-1.76-4-3.63-5.85-5.57l2.89-2.76c1.77,1.85,3.65,3.64,5.58,5.31l-2.62,3.02Zm111.23-.06l-2.62-3.02c1.93-1.68,3.81-3.47,5.57-5.32l2.89,2.76c-1.85,1.94-3.82,3.82-5.85,5.58Zm-122.38-11.61c-1.66-2.11-3.25-4.32-4.7-6.58l3.36-2.17c1.39,2.15,2.89,4.26,4.48,6.27l-3.14,2.48Zm133.52-.07l-3.14-2.47c1.58-2.01,3.09-4.12,4.47-6.27l3.36,2.16c-1.45,2.26-3.03,4.47-4.69,6.58Zm-142.28-13.49c-1.24-2.39-2.37-4.86-3.37-7.35l3.71-1.49c.95,2.37,2.03,4.73,3.21,7l-3.55,1.84Zm151.02-.08l-3.55-1.83c1.17-2.27,2.25-4.63,3.2-7.01l3.71,1.49c-1,2.49-2.13,4.96-3.36,7.35ZM18.49,124.03c-.76-2.58-1.4-5.22-1.91-7.86l3.93-.76c.48,2.51,1.09,5.03,1.82,7.48l-3.83,1.13Zm163.04-.09l-3.84-1.12c.72-2.45,1.33-4.97,1.81-7.48l3.93,.75c-.51,2.64-1.14,5.29-1.9,7.86ZM15.44,108.17c-.25-2.66-.38-5.38-.39-8.07h4c0,2.56,.13,5.15,.37,7.69l-3.98,.38Zm169.13-.1l-3.98-.38c.24-2.54,.36-5.13,.36-7.69v-.19s4,0,4,0v.17c0,2.71-.13,5.42-.38,8.08ZM19.4,92.4l-3.98-.37c.25-2.68,.63-5.37,1.13-8l3.93,.75c-.48,2.51-.84,5.07-1.08,7.63Zm161.18-.27c-.25-2.55-.62-5.12-1.1-7.62l3.92-.76c.51,2.63,.9,5.32,1.16,8l-3.98,.38ZM22.28,77.29l-3.84-1.12c.75-2.58,1.64-5.15,2.63-7.64l3.71,1.48c-.95,2.38-1.79,4.83-2.51,7.28Zm155.37-.26c-.72-2.45-1.58-4.9-2.53-7.27l3.71-1.49c1,2.49,1.9,5.06,2.66,7.63l-3.83,1.13ZM27.98,63l-3.55-1.83c1.23-2.39,2.59-4.74,4.04-7l3.36,2.16c-1.38,2.15-2.68,4.4-3.85,6.67Zm143.91-.24c-1.18-2.27-2.48-4.51-3.87-6.66l3.36-2.17c1.46,2.26,2.83,4.61,4.06,6.99l-3.55,1.84ZM36.29,50.05l-3.14-2.47c1.66-2.11,3.44-4.17,5.29-6.11l2.9,2.75c-1.76,1.86-3.46,3.82-5.04,5.83Zm127.24-.21c-1.59-2.01-3.29-3.96-5.06-5.81l2.89-2.76c1.86,1.94,3.64,3.99,5.31,6.1l-3.14,2.48Zm-116.64-10.94l-2.62-3.02c2.03-1.76,4.16-3.45,6.34-5.01l2.33,3.25c-2.08,1.49-4.11,3.09-6.05,4.77Zm105.99-.18c-1.94-1.67-3.98-3.27-6.06-4.75l2.32-3.26c2.19,1.55,4.33,3.23,6.36,4.99l-2.61,3.02ZM59.42,29.95l-2.01-3.46c2.32-1.35,4.74-2.6,7.18-3.72l1.67,3.63c-2.32,1.07-4.62,2.26-6.84,3.54Zm80.93-.14c-2.22-1.28-4.52-2.46-6.85-3.52l1.66-3.64c2.44,1.11,4.86,2.35,7.19,3.7l-1.99,3.46Zm-66.95-6.28l-1.31-3.78c2.54-.88,5.14-1.65,7.75-2.29l.95,3.88c-2.49,.61-4.97,1.34-7.39,2.18Zm52.95-.09c-2.42-.83-4.91-1.56-7.39-2.15l.93-3.89c2.61,.63,5.22,1.39,7.76,2.26l-1.3,3.78Zm-38-3.55l-.57-3.96c2.65-.38,5.36-.64,8.04-.77l.19,3.99c-2.56,.12-5.14,.37-7.67,.74Zm23.04-.04c-2.53-.36-5.11-.59-7.67-.71l.18-3.99c2.69,.12,5.39,.37,8.05,.75l-.56,3.96Z"/>
  <g>
    <g>
      <path d="M37.37,86.48h6.07v26.11h8.85v5.79h-14.92v-31.9Z"/>
      <path d="M71.97,85.68c4.51,0,8.39,1.63,11.64,4.9,3.25,3.27,4.87,7.25,4.87,11.95s-1.6,8.59-4.81,11.82c-3.2,3.22-7.09,4.84-11.66,4.84s-8.77-1.66-11.93-4.97c-3.17-3.31-4.75-7.24-4.75-11.8,0-3.05,.74-5.85,2.21-8.41,1.48-2.56,3.5-4.59,6.09-6.08,2.58-1.5,5.36-2.24,8.34-2.24Zm-.06,5.94c-2.95,0-5.43,1.03-7.45,3.08-2.01,2.05-3.02,4.66-3.02,7.83,0,3.53,1.27,6.32,3.8,8.37,1.97,1.6,4.23,2.41,6.77,2.41,2.88,0,5.33-1.04,7.36-3.12,2.03-2.08,3.04-4.65,3.04-7.7s-1.02-5.61-3.06-7.71c-2.04-2.1-4.52-3.16-7.45-3.16Z"/>
      <path d="M123.66,91.69l-4.28,4.23c-2.71-2.86-5.86-4.29-9.46-4.29-3.14,0-5.77,1.04-7.89,3.12-2.12,2.08-3.18,4.61-3.18,7.59s1.1,5.69,3.3,7.83c2.2,2.14,4.91,3.21,8.14,3.21,2.1,0,3.87-.44,5.31-1.32s2.6-2.26,3.48-4.14h-9.24v-5.7h16.05l.04,1.34c0,2.79-.72,5.44-2.17,7.94-1.45,2.5-3.32,4.41-5.62,5.73-2.3,1.32-5,1.97-8.09,1.97-3.31,0-6.26-.72-8.86-2.16-2.6-1.44-4.65-3.49-6.16-6.15-1.51-2.66-2.27-5.53-2.27-8.61,0-4.22,1.39-7.89,4.19-11.02,3.31-3.72,7.62-5.57,12.92-5.57,2.78,0,5.37,.51,7.79,1.54,2.04,.87,4.03,2.36,5.99,4.47Z"/>
      <path d="M146.57,85.68c4.51,0,8.39,1.63,11.64,4.9,3.25,3.27,4.87,7.25,4.87,11.95s-1.6,8.59-4.81,11.82c-3.2,3.22-7.09,4.84-11.66,4.84s-8.77-1.66-11.93-4.97c-3.17-3.31-4.75-7.24-4.75-11.8,0-3.05,.74-5.85,2.21-8.41,1.48-2.56,3.5-4.59,6.09-6.08,2.58-1.5,5.36-2.24,8.34-2.24Zm-.07,5.94c-2.95,0-5.43,1.03-7.45,3.08-2.01,2.05-3.02,4.66-3.02,7.83,0,3.53,1.27,6.32,3.8,8.37,1.97,1.6,4.23,2.41,6.77,2.41,2.88,0,5.33-1.04,7.36-3.12,2.03-2.08,3.04-4.65,3.04-7.7s-1.02-5.61-3.06-7.71c-2.04-2.1-4.52-3.16-7.45-3.16Z"/>
    </g>
    <g>
      <path d="M162.6,125.22h-3.04v-.75h3.04v.75Zm-6.09,0h-3.04v-.75h3.04v.75Zm-6.09,0h-3.04v-.75h3.04v.75Zm-6.09,0h-3.04v-.75h3.04v.75Zm-6.09,0h-3.04v-.75h3.04v.75Zm-6.09,0h-3.04v-.75h3.04v.75Zm-6.09,0h-3.04v-.75h3.04v.75Zm-6.09,0h-3.04v-.75h3.04v.75Zm-6.09,0h-3.04v-.75h3.04v.75Zm-6.09,0h-3.04v-.75h3.04v.75Zm-6.09,0h-3.04v-.75h3.04v.75Zm-6.09,0h-3.04v-.75h3.04v.75Zm-6.09,0h-3.04v-.75h3.04v.75Zm-6.09,0h-3.04v-.75h3.04v.75Zm-6.09,0h-3.04v-.75h3.04v.75Zm-6.09,0h-3.04v-.75h3.04v.75Zm-6.09,0h-3.04v-.75h3.04v.75Zm-6.09,0h-3.04v-.75h3.04v.75Zm-6.09,0h-3.04v-.75h3.04v.75Zm-6.09,0h-3.04v-.75h3.04v.75Zm-6.09,0h-3.04v-.75h3.04v.75Z"/>
      <path d="M33.6,120.12h-.75v-3.22h.75v3.22Zm0-6.43h-.75v-3.22h.75v3.22Zm0-6.43h-.75v-3.22h.75v3.22Zm0-6.43h-.75v-3.22h.75v3.22Zm0-6.43h-.75v-3.22h.75v3.22Zm0-6.43h-.75v-3.22h.75v3.22Z"/>
      <path d="M162.6,80.41h-3.04v-.75h3.04v.75Zm-6.09,0h-3.04v-.75h3.04v.75Zm-6.09,0h-3.04v-.75h3.04v.75Zm-6.09,0h-3.04v-.75h3.04v.75Zm-6.09,0h-3.04v-.75h3.04v.75Zm-6.09,0h-3.04v-.75h3.04v.75Zm-6.09,0h-3.04v-.75h3.04v.75Zm-6.09,0h-3.04v-.75h3.04v.75Zm-6.09,0h-3.04v-.75h3.04v.75Zm-6.09,0h-3.04v-.75h3.04v.75Zm-6.09,0h-3.04v-.75h3.04v.75Zm-6.09,0h-3.04v-.75h3.04v.75Zm-6.09,0h-3.04v-.75h3.04v.75Zm-6.09,0h-3.04v-.75h3.04v.75Zm-6.09,0h-3.04v-.75h3.04v.75Zm-6.09,0h-3.04v-.75h3.04v.75Zm-6.09,0h-3.04v-.75h3.04v.75Zm-6.09,0h-3.04v-.75h3.04v.75Zm-6.09,0h-3.04v-.75h3.04v.75Zm-6.09,0h-3.04v-.75h3.04v.75Zm-6.09,0h-3.04v-.75h3.04v.75Z"/>
      <path d="M167.52,120.12h-.75v-3.22h.75v3.22Zm0-6.43h-.75v-3.22h.75v3.22Zm0-6.43h-.75v-3.22h.75v3.22Zm0-6.43h-.75v-3.22h.75v3.22Zm0-6.43h-.75v-3.22h.75v3.22Zm0-6.43h-.75v-3.22h.75v3.22Z"/>
    </g>
    <path d="M35.27,82.09h-4.11v-4.11h4.11v4.11Zm-3.44-.67h2.77v-2.77h-2.77v2.77Z"/>
    <path d="M35.27,126.52h-4.11v-4.11h4.11v4.11Zm-3.44-.67h2.77v-2.77h-2.77v2.77Z"/>
    <path d="M169.2,82.09h-4.11v-4.11h4.11v4.11Zm-3.44-.67h2.77v-2.77h-2.77v2.77Z"/>
    <path d="M169.2,126.52h-4.11v-4.11h4.11v4.11Zm-3.44-.67h2.77v-2.77h-2.77v2.77Z"/>
    <g>
      <path d="M91.42,144.85c.86,1.41,.41,3.27-1,4.13s-3.26,.42-4.12-1-.42-3.26,1-4.12,3.27-.42,4.13,.99Z"/>
      <path d="M112.34,146.72l-35.22-26.16c-.96-.7-2.04-.88-3.02-.64l12.95,21.2c2.44-.83,5.21,.11,6.6,2.39,1.61,2.64,.78,6.1-1.86,7.72s-6.1,.77-7.71-1.87c-1.4-2.29-.96-5.18,.89-6.97l-12.94-21.19c-.65,.77-1.01,1.81-.82,2.99l7.18,43.26c.53,3.19,3.09,5.66,6.29,6.09l12.84,1.69c5.66,.75,11.08-2.56,12.99-7.93l4.37-12.22c1.08-3.03,.06-6.42-2.53-8.34Z"/>
      <path d="M131.6,185.98l-13.13-21.5c-1.09-1.78-3.41-2.34-5.19-1.25l-20.63,12.6c-1.78,1.09-2.34,3.41-1.25,5.19l8.32,13.63c.1,.06,.2,.12,.31,.19,1.01,.75,1.93,1.69,2.9,2.54,.27-.28,.66-.49,1.17-.57,3.93-.65,7.83-.43,11.79-.35,2.24,.05,4.43-.21,6.62-.5l7.84-4.79c1.78-1.09,2.34-3.41,1.25-5.19Z"/>
    </g>
    <g>
      <g>
        <rect x="70.14" y="117.39" width="3.59" height="3.59"/>
        <rect x="53.6" y="117.95" width="2.46" height="2.46" rx="1.23" ry="1.23"/>
        <rect x="87.88" y="117.95" width="2.46" height="2.46" rx="1.23" ry="1.23"/>
      </g>
      <rect x="54.83" y="118.85" width="34.28" height=".67"/>
    </g>
  </g>
</svg>