<?xml version="1.0" encoding="UTF-8"?>
<svg id="Calque_1" data-name="Calque 1" xmlns="http://www.w3.org/2000/svg" viewBox="0 0 200 200">
  <path d="M100.94,199.99c-1.39,0-3.24,0-4.14-.04-26-.81-50.36-11.56-68.54-30.28C10.04,150.91,0,126.17,0,100.01,0,44.87,44.86,0,100,0s100,44.86,100,100c0,26.53-10.28,51.52-28.95,70.36-18.65,18.83-43.52,29.35-70.01,29.62h-.1Zm-.94-191.96C49.28,8.03,8.02,49.29,8.02,100.01s39.13,90.38,89.07,91.93c.61,.03,1.91,.04,3.9,.04,50.15-.51,90.98-41.77,90.98-91.96S150.72,8.03,100,8.03Z"/>
  <path d="M100.03,185.27h-.03c-1.33,0-2.68-.03-4-.09l.19-4.01c1.27,.06,2.55,.09,3.82,.09,1.32,0,2.62-.03,3.91-.09l.19,4.01c-1.35,.06-2.72,.1-4.08,.1Zm-12.11-.85c-2.67-.38-5.35-.89-7.97-1.52l.94-3.9c2.49,.6,5.05,1.09,7.59,1.45l-.56,3.97Zm24.26-.01l-.57-3.97c2.54-.36,5.1-.85,7.59-1.46l.94,3.9c-2.62,.63-5.3,1.15-7.97,1.53Zm-40.01-3.78c-2.55-.88-5.08-1.89-7.53-3.01l1.67-3.65c2.34,1.07,4.75,2.03,7.18,2.87l-1.31,3.79Zm55.76-.03l-1.31-3.79c2.43-.84,4.84-1.81,7.17-2.88l1.67,3.65c-2.45,1.12-4.98,2.14-7.53,3.02Zm-70.51-6.7c-2.33-1.35-4.63-2.82-6.82-4.39l2.33-3.27c2.09,1.49,4.28,2.9,6.5,4.18l-2.01,3.47Zm85.24-.05l-2.01-3.47c2.22-1.28,4.41-2.69,6.5-4.19l2.33,3.27c-2.2,1.57-4.49,3.05-6.82,4.39Zm-98.45-9.35c-2.04-1.76-4.01-3.65-5.87-5.59l2.9-2.77c1.78,1.86,3.66,3.65,5.6,5.33l-2.63,3.03Zm111.64-.06l-2.63-3.03c1.94-1.69,3.82-3.48,5.59-5.34l2.9,2.77c-1.86,1.95-3.83,3.83-5.87,5.6Zm-122.83-11.65c-1.67-2.12-3.26-4.34-4.72-6.6l3.37-2.17c1.39,2.15,2.9,4.27,4.5,6.29l-3.15,2.48Zm134.01-.08l-3.15-2.48c1.59-2.02,3.1-4.14,4.49-6.3l3.37,2.17c-1.46,2.27-3.04,4.49-4.71,6.61Zm-142.8-13.54c-1.24-2.39-2.38-4.87-3.38-7.37l3.72-1.5c.96,2.38,2.04,4.75,3.22,7.03l-3.56,1.84Zm151.57-.08l-3.56-1.84c1.18-2.28,2.26-4.65,3.21-7.03l3.72,1.49c-1,2.5-2.14,4.98-3.37,7.38ZM18.2,124.11c-.76-2.58-1.4-5.24-1.91-7.88l3.94-.76c.49,2.52,1.1,5.05,1.82,7.51l-3.85,1.13Zm163.64-.09l-3.85-1.13c.72-2.46,1.33-4.99,1.82-7.51l3.94,.75c-.51,2.65-1.15,5.3-1.91,7.89ZM15.13,108.2c-.26-2.67-.39-5.4-.39-8.1h4.01c0,2.57,.13,5.17,.37,7.72l-3.99,.38Zm169.75-.1l-3.99-.38c.24-2.55,.36-5.15,.36-7.72v-.19h4.01v.19c0,2.7-.13,5.43-.38,8.1ZM19.1,92.38l-3.99-.37c.25-2.69,.63-5.39,1.13-8.03l3.94,.75c-.48,2.52-.84,5.09-1.08,7.65Zm161.77-.28c-.25-2.56-.62-5.14-1.11-7.65l3.94-.76c.51,2.64,.9,5.34,1.16,8.03l-3.99,.39ZM21.99,77.21l-3.85-1.12c.75-2.58,1.64-5.17,2.64-7.67l3.73,1.49c-.95,2.39-1.8,4.85-2.52,7.31Zm155.94-.26c-.73-2.46-1.58-4.92-2.54-7.3l3.72-1.5c1.01,2.5,1.91,5.08,2.67,7.66l-3.85,1.14ZM27.72,62.87l-3.57-1.84c1.23-2.39,2.6-4.76,4.05-7.03l3.38,2.17c-1.39,2.16-2.69,4.42-3.86,6.7Zm144.44-.24c-1.18-2.28-2.49-4.53-3.89-6.68l3.37-2.18c1.46,2.26,2.84,4.62,4.08,7.01l-3.56,1.85ZM36.06,49.87l-3.15-2.48c1.67-2.12,3.45-4.19,5.31-6.14l2.91,2.77c-1.77,1.86-3.47,3.83-5.06,5.85Zm127.71-.22c-1.59-2.01-3.3-3.98-5.08-5.83l2.9-2.77c1.86,1.95,3.66,4,5.33,6.12l-3.15,2.49Zm-117.07-10.98l-2.63-3.03c2.03-1.77,4.17-3.46,6.37-5.03l2.33,3.26c-2.09,1.49-4.13,3.11-6.07,4.79Zm106.38-.18c-1.94-1.68-3.99-3.28-6.08-4.77l2.32-3.27c2.2,1.56,4.34,3.24,6.38,5.01l-2.62,3.04ZM59.27,29.69l-2.01-3.47c2.33-1.35,4.76-2.61,7.2-3.73l1.67,3.65c-2.33,1.07-4.64,2.27-6.86,3.56Zm81.23-.14c-2.23-1.28-4.54-2.47-6.88-3.53l1.66-3.65c2.45,1.11,4.88,2.36,7.22,3.71l-2,3.48Zm-67.2-6.31l-1.32-3.79c2.54-.88,5.16-1.66,7.78-2.29l.95,3.9c-2.5,.61-4.99,1.34-7.41,2.19Zm53.14-.09c-2.43-.84-4.93-1.56-7.42-2.16l.94-3.9c2.62,.63,5.24,1.39,7.79,2.27l-1.3,3.79Zm-38.14-3.56l-.57-3.97c2.66-.38,5.38-.64,8.07-.78l.19,4.01c-2.57,.12-5.16,.37-7.7,.74Zm23.13-.04c-2.54-.36-5.13-.6-7.7-.71l.18-4.01c2.7,.12,5.41,.37,8.08,.75l-.56,3.97Z"/>
  <path d="M155.46,142.49H49.49c-2.97,0-5.39-2.42-5.39-5.39V62.9c0-2.97,2.42-5.39,5.39-5.39h105.97c2.97,0,5.39,2.42,5.39,5.39v74.2c0,2.97-2.42,5.39-5.39,5.39ZM49.49,61.52c-.76,0-1.37,.62-1.37,1.37v74.2c0,.76,.62,1.37,1.37,1.37h105.97c.76,0,1.37-.62,1.37-1.37V62.9c0-.76-.62-1.37-1.37-1.37H49.49Z"/>
  <path d="M98.66,76.39v20.66c1.01-.38,1.91-.29,2.67,.11v-18.09h39.88v31.42h-34.98c.59,.74,.7,1.84,.32,2.67h37.33v-36.77h-45.23Z"/>
  <path d="M107.79,127.27h-37.92v-30.92h37.92v30.92Zm-35.25-2.67h32.57v-25.57h-32.57v25.57Z"/>
  <polygon points="71.71 97.29 84.56 97.29 84.56 84.53 56.98 84.53 56.98 106.63 71.71 106.63 71.71 97.29"/>
  <path d="M131.67,60.45H47.14v7.49h110.11v-7.49h-25.58Zm-80.78,4.99c-.82,0-1.48-.66-1.48-1.48s.66-1.48,1.48-1.48,1.48,.66,1.48,1.48-.66,1.48-1.48,1.48Zm4.62,0c-.82,0-1.48-.66-1.48-1.48s.66-1.48,1.48-1.48,1.48,.66,1.48,1.48-.66,1.48-1.48,1.48Zm4.62,0c-.82,0-1.48-.66-1.48-1.48s.67-1.48,1.48-1.48,1.48,.66,1.48,1.48-.67,1.48-1.48,1.48Z"/>
  <g>
    <line x1="71.2" y1="125.94" x2="106.45" y2="97.7"/>
    <rect x="66.24" y="110.48" width="45.17" height="2.67" transform="translate(-50.41 80.1) rotate(-38.71)"/>
  </g>
  <g>
    <line x1="71.83" y1="97.7" x2="105.55" y2="124.98"/>
    <rect x="87.35" y="89.65" width="2.67" height="43.38" transform="translate(-53.65 110.25) rotate(-51.02)"/>
  </g>
  <g>
    <line x1="106.23" y1="106.63" x2="141.21" y2="79.06"/>
    <rect x="101.45" y="91.51" width="44.54" height="2.67" transform="translate(-30.92 96.47) rotate(-38.23)"/>
  </g>
  <g>
    <line x1="100.74" y1="78.02" x2="142.13" y2="110.95"/>
    <rect x="120.09" y="68.04" width="2.67" height="52.89" transform="translate(-28.11 130.67) rotate(-51.49)"/>
  </g>
</svg>