<?xml version="1.0" encoding="UTF-8"?>
<svg id="Calque_1" data-name="Calque 1" xmlns="http://www.w3.org/2000/svg" viewBox="0 0 50 50">
  <defs>
    <style>
      .cls-1 {
        fill: #2e2e2e;
      }
    </style>
  </defs>
  <g id="Icon_ionic-ios-mail" data-name="Icon ionic-ios-mail">
    <path id="Tracé_48" data-name="Tracé 48" class="cls-1" d="M49.58,11.7l-12.93,13.17c-.09,.09-.1,.24,0,.33,0,0,0,0,0,0l9.05,9.64c.61,.61,.61,1.59,0,2.21,0,0,0,0,0,0-.61,.61-1.6,.61-2.21,0l-9.01-9.6c-.1-.1-.25-.1-.35,0l-2.2,2.24c-1.82,1.86-4.3,2.9-6.9,2.91-2.65,0-5.19-1.09-7.04-2.99l-2.12-2.15c-.1-.1-.25-.1-.35,0l-9.01,9.6c-.61,.61-1.6,.61-2.21,0-.61-.61-.61-1.59,0-2.21,0,0,0,0,0,0l9.05-9.64c.08-.1,.08-.24,0-.34L.41,11.7c-.09-.09-.24-.1-.34,0-.05,.05-.07,.11-.07,.18v26.35c0,2.12,1.73,3.83,3.85,3.84H46.15c2.12,0,3.84-1.72,3.85-3.84V11.87c0-.13-.1-.24-.23-.25-.07,0-.14,.03-.19,.08Z"/>
    <path id="Tracé_49" data-name="Tracé 49" class="cls-1" d="M25,29.46c1.77,0,3.46-.7,4.7-1.96L48.55,8.3c-.67-.55-1.52-.84-2.39-.84H3.83c-.87,0-1.71,.29-2.39,.84L20.31,27.49c1.23,1.26,2.92,1.97,4.69,1.97Z"/>
  </g>
</svg>