<?xml version="1.0" encoding="UTF-8"?>
<svg id="ELEMENTS" xmlns="http://www.w3.org/2000/svg" viewBox="0 0 55 55">
  <defs>
    <style>
      .cls-1 {
        fill: #2e2e2e;
      }
    </style>
  </defs>
  <path class="cls-1" d="M40.61,0H14.39C6.48,0,0,6.48,0,14.39v26.23C0,48.53,6.48,55,14.39,55h26.22c7.92,0,14.39-6.47,14.39-14.38V14.39C55,6.48,48.53,0,40.61,0ZM21.29,39.49h-5.32V22.38h5.32v17.11Zm-2.66-19.44c-1.71,0-3.09-1.39-3.09-3.09s1.38-3.08,3.09-3.08,3.09,1.38,3.09,3.08-1.38,3.09-3.09,3.09Zm22.59,19.44h-5.32v-8.32c0-1.98-.04-4.54-2.76-4.54s-3.19,2.17-3.19,4.4v8.46h-5.32V22.38h5.1v2.34h.07c.71-1.35,2.45-2.76,5.04-2.76,5.38,0,6.38,3.54,6.38,8.15v9.38Z"/>
</svg>