<?xml version="1.0" encoding="UTF-8"?>
<svg id="ELEMENTS" xmlns="http://www.w3.org/2000/svg" viewBox="0 0 55 55">
  <defs>
    <style>
      .cls-1 {
        fill: #2e2e2e;
      }
    </style>
  </defs>
  <path class="cls-1" d="M32.72,27.5c0,2.81-2.28,5.09-5.09,5.09s-5.08-2.28-5.08-5.09,2.28-5.08,5.08-5.08,5.09,2.28,5.09,5.08Z"/>
  <path class="cls-1" d="M33.94,14.42h-12.88c-3.66,0-6.65,2.98-6.65,6.65v12.87c0,3.67,2.99,6.65,6.65,6.65h12.88c3.67,0,6.65-2.98,6.65-6.65v-12.87c0-3.67-2.98-6.65-6.65-6.65Zm-6.31,21.03c-4.38,0-7.94-3.57-7.94-7.95s3.56-7.94,7.94-7.94,7.94,3.57,7.94,7.94-3.56,7.95-7.94,7.95Zm8.41-14.53c-1.05,0-1.89-.85-1.89-1.89s.84-1.89,1.89-1.89,1.89,.85,1.89,1.89-.85,1.89-1.89,1.89Z"/>
  <path class="cls-1" d="M40.61,0H14.39C6.48,0,0,6.48,0,14.39v26.23C0,48.53,6.48,55,14.39,55h26.22c7.92,0,14.39-6.47,14.39-14.38V14.39C55,6.48,48.53,0,40.61,0Zm3.01,33.94c0,5.34-4.34,9.69-9.68,9.69h-12.88c-5.34,0-9.68-4.35-9.68-9.69v-12.87c0-5.34,4.34-9.69,9.68-9.69h12.88c5.34,0,9.68,4.35,9.68,9.69v12.87Z"/>
</svg>