<?xml version="1.0" encoding="UTF-8"?>
<svg id="ELEMENTS" xmlns="http://www.w3.org/2000/svg" viewBox="0 0 55 55">
  <defs>
    <style>
      .cls-1 {
        fill: #2e2e2e;
      }
    </style>
  </defs>
  <path class="cls-1" d="M22.06,26.03h-5.14v-5h5.31c.61,0,1.13,.22,1.54,.67,.42,.45,.63,1.05,.63,1.81s-.23,1.4-.68,1.85c-.46,.44-1.01,.67-1.66,.67Z"/>
  <path class="cls-1" d="M24.97,30.7c.13,.33,.19,.67,.19,1.02s-.07,.69-.2,1c-.13,.32-.31,.59-.53,.83-.22,.23-.49,.41-.8,.54-.3,.13-.63,.2-.99,.2h-5.72v-5.22h5.92c.33,0,.64,.07,.92,.21s.52,.33,.73,.57c.2,.24,.36,.53,.48,.85Z"/>
  <path class="cls-1" d="M39.88,26.45c-.69-.64-1.54-.96-2.53-.96-.49,0-.94,.09-1.36,.26-.43,.17-.8,.41-1.13,.71-.32,.31-.59,.68-.79,1.11-.21,.44-.33,.91-.37,1.44h7.36c-.09-1.07-.49-1.92-1.18-2.56Zm0,0c-.69-.64-1.54-.96-2.53-.96-.49,0-.94,.09-1.36,.26-.43,.17-.8,.41-1.13,.71-.32,.31-.59,.68-.79,1.11-.21,.44-.33,.91-.37,1.44h7.36c-.09-1.07-.49-1.92-1.18-2.56Zm0,0c-.69-.64-1.54-.96-2.53-.96-.49,0-.94,.09-1.36,.26-.43,.17-.8,.41-1.13,.71-.32,.31-.59,.68-.79,1.11-.21,.44-.33,.91-.37,1.44h7.36c-.09-1.07-.49-1.92-1.18-2.56Zm0,0c-.69-.64-1.54-.96-2.53-.96-.49,0-.94,.09-1.36,.26-.43,.17-.8,.41-1.13,.71-.32,.31-.59,.68-.79,1.11-.21,.44-.33,.91-.37,1.44h7.36c-.09-1.07-.49-1.92-1.18-2.56Zm0,0c-.69-.64-1.54-.96-2.53-.96-.49,0-.94,.09-1.36,.26-.43,.17-.8,.41-1.13,.71-.32,.31-.59,.68-.79,1.11-.21,.44-.33,.91-.37,1.44h7.36c-.09-1.07-.49-1.92-1.18-2.56Zm0,0c-.69-.64-1.54-.96-2.53-.96-.49,0-.94,.09-1.36,.26-.43,.17-.8,.41-1.13,.71-.32,.31-.59,.68-.79,1.11-.21,.44-.33,.91-.37,1.44h7.36c-.09-1.07-.49-1.92-1.18-2.56ZM40.62,0H14.39C6.48,0,0,6.48,0,14.39v26.23C0,48.53,6.48,55,14.39,55h26.23c7.91,0,14.38-6.47,14.38-14.38V14.39C55,6.48,48.53,0,40.62,0Zm-8.01,18.68h9.48v2.35h-9.48v-2.35Zm-4.08,15.97c-.33,.63-.79,1.16-1.38,1.59-.58,.43-1.26,.75-2.04,.98-.77,.22-1.59,.33-2.47,.33H13.07V17.74h10.61c.68,0,1.31,.15,1.87,.44,.55,.3,1.03,.69,1.42,1.16,.39,.48,.69,1.02,.91,1.62,.21,.6,.32,1.21,.32,1.83,0,.97-.24,1.87-.73,2.72-.48,.85-1.19,1.47-2.12,1.88,1.14,.34,2.03,.94,2.69,1.8,.66,.87,1,1.95,1,3.26,0,.83-.17,1.57-.51,2.2Zm16.18-3.29h-10.96c.06,.56,.19,1.05,.41,1.49,.22,.43,.5,.8,.84,1.11,.34,.3,.73,.54,1.16,.7s.88,.24,1.35,.24c.72,0,1.41-.17,2.05-.53,.64-.35,1.07-.81,1.31-1.39l3.11,.87c-.53,1.08-1.36,1.97-2.5,2.66-1.15,.7-2.52,1.04-4.1,1.04-1.14,0-2.17-.19-3.08-.58-1.83-.77-3.11-2.08-3.86-3.91-.35-.88-.53-1.81-.53-2.78s.18-1.96,.52-2.86c.73-1.85,2.02-3.17,3.85-3.96,.93-.39,1.97-.59,3.13-.59s2.18,.2,3.09,.59c2.99,1.31,4.4,4.21,4.27,7.36,0,.21-.03,.4-.06,.54Zm-7.36-5.87c-.49,0-.94,.09-1.36,.26-.43,.17-.8,.41-1.13,.71-.32,.31-.59,.68-.79,1.11-.21,.44-.33,.91-.37,1.44h7.36c-.09-1.07-.49-1.92-1.18-2.56s-1.54-.96-2.53-.96Zm2.53,.96c-.69-.64-1.54-.96-2.53-.96-.49,0-.94,.09-1.36,.26-.43,.17-.8,.41-1.13,.71-.32,.31-.59,.68-.79,1.11-.21,.44-.33,.91-.37,1.44h7.36c-.09-1.07-.49-1.92-1.18-2.56Zm0,0c-.69-.64-1.54-.96-2.53-.96-.49,0-.94,.09-1.36,.26-.43,.17-.8,.41-1.13,.71-.32,.31-.59,.68-.79,1.11-.21,.44-.33,.91-.37,1.44h7.36c-.09-1.07-.49-1.92-1.18-2.56Zm0,0c-.69-.64-1.54-.96-2.53-.96-.49,0-.94,.09-1.36,.26-.43,.17-.8,.41-1.13,.71-.32,.31-.59,.68-.79,1.11-.21,.44-.33,.91-.37,1.44h7.36c-.09-1.07-.49-1.92-1.18-2.56Zm0,0c-.69-.64-1.54-.96-2.53-.96-.49,0-.94,.09-1.36,.26-.43,.17-.8,.41-1.13,.71-.32,.31-.59,.68-.79,1.11-.21,.44-.33,.91-.37,1.44h7.36c-.09-1.07-.49-1.92-1.18-2.56Z"/>
</svg>