<?xml version="1.0" encoding="UTF-8"?>
<svg id="ELEMENTS" xmlns="http://www.w3.org/2000/svg" viewBox="0 0 55 55">
  <defs>
    <style>
      .cls-1 {
        fill: #2e2e2e;
      }
    </style>
  </defs>
  <path class="cls-1" d="M55,14.39v26.23c0,7.91-6.47,14.38-14.38,14.38h-8.82v-18.65h6.41l1.22-7.94h-7.63v-5.16c0-2.18,1.07-4.3,4.48-4.3h3.47v-6.77s-3.15-.53-6.16-.53c-6.28,0-10.38,3.8-10.38,10.7v6.06h-6.99v7.94h6.99v18.65H14.39C6.48,55,0,48.53,0,40.62V14.39C0,6.48,6.48,0,14.39,0h26.23C48.53,0,55,6.48,55,14.39Z"/>
</svg>